<?xml version="1.0" encoding="UTF-8" standalone="no"?>
<!-- Created with Inkscape (http://www.inkscape.org/) -->

<svg
   width="300"
   height="300"
   viewBox="0 0 300 300"
   version="1.1"
   id="svg1"
   inkscape:version="1.4 (e7c3feb1, 2024-10-09)"
   sodipodi:docname="99fontssvg"
   xmlns:inkscape="http://www.inkscape.org/namespaces/inkscape"
   xmlns:sodipodi="http://sodipodi.sourceforge.net/DTD/sodipodi-0.dtd"
   xmlns="http://www.w3.org/2000/svg"
   xmlns:svg="http://www.w3.org/2000/svg">
  <sodipodi:namedview
     id="namedview1"
     pagecolor="#ffffff"
     bordercolor="#000000"
     borderopacity="0.25"
     inkscape:showpageshadow="2"
     inkscape:pageopacity="0.0"
     inkscape:pagecheckerboard="0"
     inkscape:deskcolor="#d1d1d1"
     inkscape:document-units="px"
     inkscape:zoom="1.4448706"
     inkscape:cx="43.602522"
     inkscape:cy="128.3852"
     inkscape:window-width="1712"
     inkscape:window-height="960"
     inkscape:window-x="0"
     inkscape:window-y="39"
     inkscape:window-maximized="1"
     inkscape:current-layer="layer1" />
  <defs
     id="defs1">
    <inkscape:path-effect
       effect="fillet_chamfer"
       id="path-effect4"
       is_visible="true"
       lpeversion="1"
       nodesatellites_param="F,0,0,1,0,32.27647,0,1 @ F,0,0,1,0,0,0,1 @ F,0,0,1,0,0,0,1 @ F,0,0,1,0,28.523228,0,1"
       radius="0"
       unit="px"
       method="auto"
       mode="F"
       chamfer_steps="1"
       flexible="false"
       use_knot_distance="true"
       apply_no_radius="true"
       apply_with_radius="true"
       only_selected="false"
       hide_knots="false" />
    <inkscape:path-effect
       effect="fillet_chamfer"
       id="path-effect1"
       is_visible="true"
       lpeversion="1"
       nodesatellites_param="F,0,0,1,0,0,0,1 @ F,0,0,1,0,0,0,1 @ F,0,0,1,0,0,0,1 @ F,0,0,1,0,0,0,1 @ F,0,0,1,0,0,0,1 @ F,0,0,1,0,0,0,1 @ F,0,0,1,0,0,0,1 @ F,0,0,1,0,0,0,1 @ F,0,0,1,0,0,0,1 | F,0,0,1,0,0,0,1 @ F,0,0,1,0,0,0,1 @ F,0,0,1,0,0,0,1 @ F,0,0,1,0,0,0,1"
       radius="0"
       unit="px"
       method="auto"
       mode="F"
       chamfer_steps="1"
       flexible="false"
       use_knot_distance="true"
       apply_no_radius="true"
       apply_with_radius="true"
       only_selected="false"
       hide_knots="false" />
    <inkscape:path-effect
       effect="fillet_chamfer"
       id="path-effect4-9"
       is_visible="true"
       lpeversion="1"
       nodesatellites_param="F,0,0,1,0,30.363007,0,1 @ F,0,0,1,0,0,0,1 @ F,0,0,1,0,0,0,1 @ F,0,0,1,0,31.719439,0,1"
       radius="0"
       unit="px"
       method="auto"
       mode="F"
       chamfer_steps="1"
       flexible="false"
       use_knot_distance="true"
       apply_no_radius="true"
       apply_with_radius="true"
       only_selected="false"
       hide_knots="false" />
    <inkscape:path-effect
       effect="fillet_chamfer"
       id="path-effect4-9-0"
       is_visible="true"
       lpeversion="1"
       nodesatellites_param="F,0,0,1,0,30.363007,0,1 @ F,0,0,1,0,0,0,1 @ F,0,0,1,0,0,0,1 @ F,0,0,1,0,31.719439,0,1"
       radius="0"
       unit="px"
       method="auto"
       mode="F"
       chamfer_steps="1"
       flexible="false"
       use_knot_distance="true"
       apply_no_radius="true"
       apply_with_radius="true"
       only_selected="false"
       hide_knots="false" />
  </defs>
  <g
     inkscape:label="Layer 1"
     inkscape:groupmode="layer"
     id="layer1">
    <path
       id="path2"
       style="fill:#000000;fill-opacity:1;stroke-width:1.17085"
       d="M 150,25.879882 A 124.11951,124.11951 0 0 0 25.880859,150.00098 124.11951,124.11951 0 0 0 150,274.12012 124.11951,124.11951 0 0 0 274.11914,150.00098 124.11951,124.11951 0 0 0 150,25.879882 Z m 2.84375,37.095703 a 11.494852,11.494852 0 0 1 7.24219,3.246094 l 25.98828,25.394531 c -27.63362,2.664526 -32.08184,30.16958 -36.38086,57.94922 l 0.0176,0.14648 73.87109,-9.07031 a 12.00837,12.00837 0 0 1 10.05078,20.3125 l -24.37305,24.94141 c -3.3883,-27.59553 -31.5824,-31.81422 -59.54297,-36.14063 l 9.06446,73.82618 a 12.00837,12.00837 0 0 1 -20.31057,10.05273 l -24.94141,-24.37305 c 27.58525,-3.38704 31.81005,-31.56334 36.13477,-59.51367 -0.0341,-0.005 -0.0675,-0.0123 -0.10156,-0.0176 l -73.71875,9.05274 a 11.494852,11.494852 0 0 1 -9.623047,-19.44334 l 25.396484,-25.98828 c 2.664395,27.63224 30.167073,32.08008 57.945313,36.3789 l 0.10742,-0.0137 c 0.008,-0.0503 0.0157,-0.10011 0.0234,-0.15039 l -9.05078,-73.722658 a 11.494852,11.494852 0 0 1 12.20117,-12.867187 z" />
  </g>
</svg>
